<?xml version="1.0" standalone="no"?>
<!DOCTYPE svg PUBLIC "-//W3C//DTD SVG 20010904//EN"
 "http://www.w3.org/TR/2001/REC-SVG-20010904/DTD/svg10.dtd">
<svg version="1.0" xmlns="http://www.w3.org/2000/svg"
 width="300.000000pt" height="102.000000pt" viewBox="0 0 300.000000 102.000000"
 preserveAspectRatio="xMidYMid meet">

<g transform="translate(0.000000,102.000000) scale(0.100000,-0.100000)"
fill="#000000" stroke="none">
<path d="M138 961 l-138 -56 3 -394 2 -395 125 -52 c88 -37 139 -53 172 -53
52 -1 800 58 805 63 2 2 4 197 6 435 2 425 2 432 -18 436 -11 2 -189 18 -395
35 -206 17 -386 32 -400 34 -14 2 -84 -21 -162 -53z m490 -137 l52 -7 0 -307
0 -307 -82 -6 c-46 -4 -100 -7 -120 -7 l-38 0 0 320 0 320 68 0 c37 0 91 -3
120 -6z m222 -29 c51 -26 83 -80 88 -145 2 -32 -1 -73 -7 -92 -13 -41 -65 -92
-104 -104 l-28 -9 97 -108 c53 -59 94 -110 91 -114 -7 -7 -249 -22 -259 -16
-5 2 -8 138 -8 302 0 164 3 301 8 305 10 11 87 -1 122 -19z"/>
<path d="M1260 509 c0 -52 3 -70 13 -67 6 3 13 22 15 43 l3 39 38 -44 c48 -56
61 -48 61 36 0 57 -2 64 -20 64 -16 0 -20 -7 -20 -37 l0 -38 -31 38 c-47 57
-59 50 -59 -34z"/>
<path d="M1436 533 c-35 -72 -40 -93 -21 -93 8 0 18 7 21 15 4 9 19 15 39 15
20 0 35 -6 39 -15 5 -14 36 -22 36 -10 0 3 -13 35 -29 70 -18 39 -36 65 -45
65 -9 0 -26 -21 -40 -47z m54 -25 c0 -5 -7 -8 -15 -8 -15 0 -20 21 -8 33 7 7
23 -11 23 -25z"/>
<path d="M1540 571 c0 -5 10 -11 23 -13 19 -3 22 -10 25 -61 4 -77 26 -72 30
6 3 49 6 57 22 57 11 0 20 5 20 10 0 6 -27 10 -60 10 -33 0 -60 -4 -60 -9z"/>
<path d="M1680 510 c0 -56 3 -70 15 -70 12 0 15 14 15 70 0 56 -3 70 -15 70
-12 0 -15 -14 -15 -70z"/>
<path d="M1750 560 c-27 -27 -25 -66 6 -97 21 -21 32 -24 62 -19 20 3 43 13
49 23 19 25 16 77 -5 96 -26 24 -87 22 -112 -3z m81 -10 c23 -13 25 -52 4 -70
-8 -7 -25 -10 -39 -6 -32 8 -40 42 -15 67 22 22 24 22 50 9z"/>
<path d="M1910 509 c0 -52 3 -70 13 -67 6 3 13 22 15 42 l3 38 35 -41 c20 -23
40 -41 45 -41 5 0 9 32 9 70 0 56 -3 70 -15 70 -11 0 -15 -11 -15 -37 l-1 -38
-30 38 c-47 57 -59 50 -59 -34z"/>
<path d="M2077 518 c-15 -35 -27 -66 -27 -70 0 -14 28 -8 34 7 3 9 18 15 40
15 21 0 36 -6 40 -15 5 -13 36 -22 36 -11 0 2 -13 34 -30 70 -38 87 -56 87
-93 4z m63 -10 c0 -5 -7 -8 -15 -8 -15 0 -20 21 -8 33 7 7 23 -11 23 -25z"/>
<path d="M2212 513 l3 -68 48 0 c53 0 69 18 20 23 -33 3 -33 4 -33 58 0 48 -2
54 -20 54 -19 0 -21 -5 -18 -67z"/>
<path d="M1272 333 c-27 -59 -30 -68 -15 -72 9 -1 20 4 25 13 11 20 64 21 72
1 5 -14 36 -22 36 -10 0 21 -62 135 -73 135 -8 0 -28 -30 -45 -67z m58 -4 c0
-10 -7 -19 -15 -19 -16 0 -19 9 -9 34 8 20 24 11 24 -15z"/>
<path d="M1418 389 c-10 -5 -18 -21 -18 -33 0 -18 9 -28 41 -40 48 -19 43 -40
-8 -30 -28 5 -35 4 -31 -7 7 -21 88 -19 102 4 15 24 -3 49 -43 59 -39 11 -31
32 11 26 22 -4 28 -1 26 11 -4 19 -55 26 -80 10z"/>
<path d="M1536 385 c-30 -30 -16 -57 37 -70 15 -4 27 -11 27 -16 0 -16 -27
-21 -48 -10 -15 8 -21 7 -25 -3 -8 -21 2 -26 49 -26 33 0 46 5 54 19 14 28 2
50 -33 59 -44 11 -49 35 -6 30 25 -2 34 1 34 12 0 22 -68 26 -89 5z"/>
<path d="M1670 380 c-26 -26 -26 -81 -2 -103 44 -40 132 -8 132 48 0 61 -87
98 -130 55z m90 -29 c18 -35 -18 -79 -54 -65 -22 8 -31 51 -16 69 18 21 57 19
70 -4z"/>
<path d="M1835 375 c-30 -30 -31 -54 -4 -89 21 -27 69 -35 99 -16 21 13 4 25
-38 25 -36 0 -37 1 -37 35 0 34 1 35 37 35 42 0 59 12 38 25 -27 17 -70 11
-95 -15z"/>
<path d="M1967 394 c-4 -4 -7 -36 -7 -71 0 -57 2 -63 20 -63 19 0 21 5 18 67
-3 61 -14 84 -31 67z"/>
<path d="M2041 334 c-17 -36 -31 -68 -31 -70 0 -11 31 -2 36 11 4 9 19 15 39
15 20 0 35 -6 39 -15 5 -13 36 -22 36 -11 0 21 -62 136 -74 136 -8 0 -28 -29
-45 -66z m59 -11 c0 -7 -7 -13 -15 -13 -16 0 -19 9 -9 35 5 13 8 14 15 3 5 -7
9 -19 9 -25z"/>
<path d="M2157 393 c-14 -13 -6 -23 18 -23 24 0 25 -3 25 -55 0 -42 3 -55 15
-55 12 0 15 13 15 55 0 48 2 55 20 55 11 0 20 7 20 15 0 11 -13 15 -53 15 -30
0 -57 -3 -60 -7z"/>
<path d="M2290 330 c0 -56 3 -70 15 -70 12 0 15 14 15 70 0 56 -3 70 -15 70
-12 0 -15 -14 -15 -70z"/>
<path d="M2372 383 c-54 -46 -24 -123 47 -123 46 0 74 27 74 72 0 58 -75 90
-121 51z m76 -25 c34 -34 -6 -90 -48 -68 -35 19 -20 80 20 80 9 0 21 -5 28
-12z"/>
<path d="M2520 330 c0 -56 3 -70 15 -70 11 0 15 11 15 38 l1 37 33 -37 c48
-55 56 -50 56 33 0 52 -3 70 -12 67 -7 -3 -15 -21 -18 -41 l-5 -36 -29 40
c-44 58 -56 52 -56 -31z"/>
<path d="M2745 375 c-50 -49 -19 -115 53 -115 47 0 72 24 72 68 0 66 -78 95
-125 47z m85 -20 c15 -18 6 -61 -16 -69 -19 -7 -50 8 -58 29 -16 42 45 75 74
40z"/>
<path d="M2897 393 c-4 -3 -7 -35 -7 -70 0 -56 2 -63 20 -63 15 0 20 7 20 25
0 21 5 25 30 25 17 0 30 5 30 10 0 6 -13 10 -30 10 -23 0 -30 4 -30 20 0 16 7
20 35 20 24 0 35 5 35 15 0 11 -12 15 -48 15 -27 0 -52 -3 -55 -7z"/>
<path d="M1260 145 c0 -51 3 -65 15 -65 8 0 15 9 15 20 0 11 7 20 15 20 8 0
19 -9 25 -20 6 -11 17 -20 25 -20 18 0 19 12 3 29 -10 11 -10 14 0 18 15 6 16
55 0 71 -7 7 -31 12 -55 12 l-43 0 0 -65z m84 29 c9 -22 -1 -34 -30 -34 -19 0
-24 5 -24 25 0 20 5 25 24 25 13 0 27 -7 30 -16z"/>
<path d="M1400 145 l0 -65 56 0 c34 0 53 4 49 10 -3 6 -22 10 -41 10 -28 0
-35 4 -32 18 2 11 14 18 36 20 39 4 33 22 -9 22 -19 0 -29 5 -29 15 0 10 11
15 35 15 19 0 35 5 35 10 0 6 -22 10 -50 10 l-50 0 0 -65z"/>
<path d="M1549 153 c-13 -32 -25 -61 -27 -65 -2 -4 3 -8 11 -8 8 0 17 7 21 15
3 9 18 15 36 15 18 0 33 -6 36 -15 5 -13 34 -22 34 -11 0 3 -12 32 -26 65 -34
79 -52 80 -85 4z m60 -15 c1 -5 -8 -8 -19 -8 -23 0 -24 4 -8 33 11 21 11 21
19 2 4 -11 8 -23 8 -27z"/>
<path d="M1680 145 l0 -65 50 0 c28 0 50 5 50 10 0 6 -16 10 -35 10 l-35 0 0
55 c0 42 -3 55 -15 55 -12 0 -15 -14 -15 -65z"/>
<path d="M1770 200 c0 -5 11 -10 25 -10 24 0 25 -3 25 -55 0 -30 5 -55 10 -55
6 0 10 25 10 55 0 52 1 55 25 55 14 0 25 5 25 10 0 6 -27 10 -60 10 -33 0 -60
-4 -60 -10z"/>
<path d="M1917 192 c-22 -25 -21 -75 1 -95 23 -21 86 -22 106 -1 25 24 24 68
-1 97 -22 23 -85 23 -106 -1z m87 -18 c19 -18 20 -28 6 -55 -20 -37 -80 -18
-80 26 0 42 44 59 74 29z"/>
<path d="M2070 145 c0 -51 3 -65 15 -65 8 0 15 9 15 20 0 26 26 26 42 0 7 -11
18 -20 25 -20 15 0 17 16 3 25 -7 4 -5 14 5 28 31 45 6 77 -61 77 l-44 0 0
-65z m85 20 c0 -14 -8 -21 -27 -23 -24 -3 -28 0 -28 23 0 23 4 26 28 23 19 -2
27 -9 27 -23z"/>
<path d="M2214 196 c-11 -28 1 -49 33 -60 41 -14 38 -31 -4 -30 -22 1 -33 -3
-33 -12 0 -10 14 -14 45 -14 35 0 47 5 55 21 14 26 0 45 -41 54 -41 9 -39 38
3 33 19 -2 33 2 35 10 7 18 -86 16 -93 -2z"/>
<path d="M2350 179 c0 -13 -4 -18 -12 -13 -9 5 -9 2 1 -9 15 -18 26 -23 16 -7
-3 6 1 13 9 16 20 8 21 34 1 34 -8 0 -15 -9 -15 -21z"/>
<path d="M2375 150 c-3 -6 1 -7 9 -4 18 7 21 14 7 14 -6 0 -13 -4 -16 -10z"/>
</g>
</svg>
