<?xml version="1.0" standalone="no"?>
<!DOCTYPE svg PUBLIC "-//W3C//DTD SVG 20010904//EN"
 "http://www.w3.org/TR/2001/REC-SVG-20010904/DTD/svg10.dtd">
<svg version="1.0" xmlns="http://www.w3.org/2000/svg"
 width="820.000000pt" height="502.000000pt" viewBox="0 0 820.000000 502.000000"
 preserveAspectRatio="xMidYMid meet">

<g transform="translate(0.000000,502.000000) scale(0.100000,-0.100000)"
fill="#000000" stroke="none">
<path d="M3301 3518 c-12 -52 -7 -76 10 -46 22 40 40 48 105 48 l64 0 0 -186
c0 -109 -4 -193 -10 -205 -6 -11 -21 -19 -35 -19 -14 0 -25 -4 -25 -10 0 -6
38 -10 95 -10 57 0 95 4 95 10 0 6 -11 10 -25 10 -39 0 -45 32 -45 231 l0 179
65 0 c69 0 105 -20 105 -57 0 -37 18 5 22 50 3 39 1 46 -12 40 -8 -5 -91 -9
-184 -11 -135 -2 -173 0 -191 12 -21 14 -22 13 -34 -36z"/>
<path d="M4335 3550 c-99 -15 -174 -86 -196 -185 -31 -141 64 -269 210 -282
151 -14 265 88 264 237 -1 155 -121 254 -278 230z m140 -60 c48 -46 70 -109
69 -195 0 -79 -16 -118 -64 -158 -55 -47 -141 -45 -202 3 -72 56 -98 222 -48
309 34 60 79 83 153 78 49 -3 62 -8 92 -37z"/>
<path d="M2244 3541 c-2 -2 11 -11 29 -20 28 -14 33 -22 38 -66 7 -59 2 -322
-6 -336 -4 -5 -15 -9 -26 -9 -10 0 -19 -4 -19 -10 0 -6 32 -10 75 -10 72 0
105 15 48 22 -24 3 -29 9 -35 43 -10 59 -10 297 1 293 5 -1 80 -84 166 -183
86 -99 161 -181 166 -183 5 -2 9 87 9 213 l0 216 31 11 c44 15 28 22 -56 23
-80 2 -92 -4 -47 -21 23 -9 30 -19 35 -50 9 -54 9 -274 0 -273 -10 1 -156 163
-240 267 l-62 76 -51 0 c-29 1 -53 -1 -56 -3z"/>
<path d="M3038 3536 c-10 -7 -18 -19 -18 -25 0 -18 -129 -353 -146 -378 -8
-13 -23 -23 -34 -23 -11 0 -20 -4 -20 -10 0 -6 30 -10 70 -10 40 0 70 4 70 10
0 6 -9 10 -20 10 -25 0 -26 20 -4 86 25 73 28 75 103 72 l66 -3 22 -60 c28
-77 28 -95 3 -95 -11 0 -20 -4 -20 -10 0 -6 35 -10 86 -10 54 0 83 4 79 10 -3
6 -14 10 -24 10 -10 0 -24 6 -30 14 -7 8 -42 105 -80 217 -37 112 -72 204 -77
206 -5 1 -17 -4 -26 -11z m32 -153 c29 -80 24 -91 -37 -89 -45 1 -48 3 -46 26
2 37 44 143 53 133 4 -4 17 -36 30 -70z"/>
<path d="M3830 3538 c0 -5 6 -8 14 -8 8 0 22 -7 30 -16 13 -13 16 -45 16 -198
0 -188 -4 -206 -42 -206 -10 0 -18 -4 -18 -10 0 -6 37 -10 92 -10 55 0 88 4
83 9 -6 5 -19 11 -30 13 -19 3 -20 12 -23 201 l-2 198 32 14 c18 8 29 15 23
16 -36 5 -175 3 -175 -3z"/>
<path d="M4737 3543 c-4 -4 7 -14 25 -23 l33 -15 3 -175 c3 -205 1 -220 -33
-220 -14 0 -25 -4 -25 -10 0 -6 33 -10 80 -10 47 0 80 4 80 10 0 6 -11 10 -25
10 -18 0 -28 7 -35 26 -13 32 -13 314 -1 314 5 0 11 -4 13 -9 2 -5 73 -89 158
-186 l155 -177 5 212 c5 195 7 213 24 226 11 8 23 14 28 14 4 0 8 3 8 8 0 9
-146 10 -155 0 -3 -3 7 -9 23 -13 17 -3 33 -13 36 -20 6 -17 10 -295 4 -301
-5 -4 -239 259 -272 306 -17 24 -28 30 -58 30 -20 0 -43 2 -50 5 -8 3 -17 2
-21 -2z"/>
<path d="M5528 3538 c-8 -7 -29 -55 -47 -105 -55 -158 -118 -307 -132 -315 -8
-3 -23 -10 -34 -14 -16 -7 -13 -9 17 -12 21 -2 57 -2 80 0 l43 4 -28 12 c-31
13 -31 7 3 107 l17 50 73 0 73 0 24 -69 c28 -84 28 -86 4 -86 -11 0 -23 -4
-26 -10 -4 -6 25 -10 79 -10 51 0 86 4 86 10 0 6 -9 10 -19 10 -31 0 -47 32
-117 242 -36 109 -69 198 -73 198 -4 0 -14 -6 -23 -12z m44 -214 c3 -29 2 -29
-50 -30 -29 -1 -54 1 -56 5 -2 3 10 44 27 90 l31 84 22 -60 c13 -34 24 -74 26
-89z"/>
<path d="M5840 3540 c0 -3 14 -11 30 -17 l30 -11 -2 -199 -3 -198 -27 -3 c-16
-2 -28 -8 -28 -13 0 -5 69 -9 165 -9 l164 0 14 48 c16 50 12 69 -7 38 -31 -53
-53 -66 -116 -66 -98 0 -100 4 -100 214 0 145 3 177 16 190 8 9 22 16 30 16 8
0 14 3 14 8 0 4 -41 7 -90 7 -50 1 -90 -2 -90 -5z"/>
<path d="M40 2630 l0 -910 850 0 850 0 0 910 0 910 -850 0 -850 0 0 -910z
m730 10 l0 -670 -245 0 -245 0 0 663 c0 365 3 667 7 670 3 4 114 7 245 7 l238
0 0 -670z m504 640 c73 -28 126 -68 164 -126 43 -63 56 -113 56 -204 0 -150
-87 -258 -239 -298 -22 -6 -98 -12 -170 -13 l-130 -3 -3 332 -2 332 134 0
c111 0 145 -4 190 -20z m16 -985 l325 -325 -333 0 -332 0 0 325 c0 179 3 325
8 325 4 0 153 -146 332 -325z"/>
<path d="M8053 2885 c-39 -17 -92 -88 -114 -153 -14 -41 -20 -48 -49 -52 -44
-7 -52 -30 -11 -30 17 0 31 -2 31 -3 0 -23 -94 -357 -105 -374 -16 -24 -35
-22 -67 4 -19 17 -38 9 -38 -16 0 -43 52 -54 105 -21 43 27 64 74 115 257 l42
152 44 3 c55 4 58 22 4 26 -22 2 -40 4 -40 6 0 2 9 29 20 61 40 115 97 156
128 92 11 -23 16 -26 28 -16 21 17 17 46 -8 63 -27 19 -43 19 -85 1z"/>
<path d="M5452 2828 c-6 -28 -9 -54 -6 -57 4 -3 9 0 11 6 15 42 41 57 107 61
l66 4 -2 -203 -3 -204 -32 -10 c-18 -5 -33 -12 -33 -15 0 -3 43 -5 95 -5 52 0
95 2 95 5 0 3 -13 11 -30 17 l-30 11 0 201 0 201 53 0 c63 0 101 -18 105 -48
4 -29 22 -28 22 2 0 13 3 39 6 57 6 28 4 32 -7 22 -16 -16 -374 -19 -384 -3
-12 20 -20 9 -33 -42z"/>
<path d="M2439 2857 c-9 -7 -20 -23 -24 -37 -24 -79 -140 -368 -153 -382 -8
-10 -23 -18 -34 -18 -10 0 -18 -4 -18 -9 0 -10 135 -9 146 2 4 4 -2 7 -14 7
-33 0 -35 15 -10 90 l22 71 75 -3 74 -3 24 -69 c23 -71 21 -85 -14 -86 -7 0
-13 -3 -13 -7 0 -5 38 -8 85 -9 84 0 109 8 60 20 -32 8 -36 16 -112 240 -35
105 -67 194 -71 198 -4 4 -14 1 -23 -5z m22 -149 c12 -40 24 -79 27 -85 3 -10
-12 -13 -57 -13 -34 0 -61 1 -61 3 0 7 49 148 55 157 10 17 12 13 36 -62z"/>
<path d="M2844 2856 c-42 -19 -64 -53 -64 -99 0 -59 24 -92 104 -146 78 -53
86 -64 86 -117 0 -48 -29 -74 -84 -74 -50 0 -87 24 -106 70 -13 30 -30 41 -30
18 0 -7 5 -30 11 -51 12 -45 40 -59 116 -58 93 1 143 43 143 119 0 64 -23 98
-101 149 -83 53 -105 89 -85 138 9 22 22 32 49 39 46 12 82 -3 105 -44 9 -16
21 -30 26 -30 10 0 -2 71 -15 84 -15 16 -121 18 -155 2z"/>
<path d="M3244 2855 c-44 -23 -68 -68 -61 -117 6 -47 31 -76 110 -130 70 -47
93 -89 76 -137 -13 -36 -35 -51 -78 -51 -48 0 -81 21 -104 64 -16 31 -22 37
-25 23 -2 -11 -1 -35 3 -53 8 -45 38 -57 127 -52 53 3 72 8 92 27 52 49 58
120 15 175 -12 15 -46 43 -77 62 -70 44 -91 70 -92 111 0 82 128 99 161 22 17
-43 33 -36 26 12 -3 22 -8 43 -11 46 -3 3 -33 7 -68 10 -45 3 -72 -1 -94 -12z"/>
<path d="M3713 2854 c-85 -31 -153 -132 -153 -227 0 -84 65 -181 142 -212 52
-21 152 -22 198 -3 52 22 96 63 120 114 18 37 21 58 19 124 -4 68 -8 84 -34
122 -17 24 -50 54 -74 67 -55 30 -157 38 -218 15z m157 -26 c124 -63 142 -318
27 -388 -39 -24 -116 -26 -156 -5 -85 43 -135 191 -100 296 23 66 89 118 154
119 17 0 51 -10 75 -22z"/>
<path d="M4360 2861 c-121 -37 -183 -115 -184 -231 -1 -145 97 -230 262 -230
122 0 139 10 166 92 10 31 -13 29 -29 -2 -45 -87 -205 -95 -276 -14 -74 84
-74 247 -2 316 82 79 216 76 264 -7 12 -19 23 -35 25 -35 2 0 4 22 4 49 l0 49
-50 11 c-57 12 -143 13 -180 2z"/>
<path d="M5199 2857 c-8 -7 -45 -93 -83 -193 -76 -204 -97 -244 -126 -244 -11
0 -20 -4 -20 -8 0 -10 136 -10 146 1 4 4 -2 7 -14 7 -33 0 -35 15 -10 90 l22
71 75 -3 74 -3 18 -50 c24 -68 24 -96 -1 -102 -42 -11 -17 -18 65 -18 47 0 85
2 85 5 0 3 -15 12 -32 20 -29 14 -36 28 -102 222 -39 114 -73 209 -76 211 -3
3 -12 0 -21 -6z m46 -226 c6 -20 3 -21 -54 -21 -34 0 -61 3 -61 6 0 9 49 145
57 157 6 9 25 -39 58 -142z"/>
<path d="M6446 2855 c-53 -19 -85 -44 -121 -94 -24 -34 -30 -54 -33 -111 -5
-88 10 -133 63 -186 48 -48 97 -65 180 -65 162 0 269 150 221 313 -36 125
-178 190 -310 143z m162 -32 c65 -48 97 -131 89 -230 -5 -72 -29 -118 -78
-151 -28 -20 -44 -23 -92 -20 -72 5 -104 27 -140 99 -23 45 -28 69 -28 126 0
100 37 166 111 196 29 12 111 0 138 -20z"/>
<path d="M4720 2850 c0 -5 9 -10 20 -10 13 0 24 -10 30 -26 11 -27 14 -324 4
-361 -3 -12 -17 -24 -30 -27 -48 -12 -22 -21 61 -21 83 0 109 9 61 21 -13 3
-27 15 -30 27 -10 38 -7 347 4 368 6 10 20 19 30 19 11 0 20 5 20 10 0 6 -35
10 -85 10 -50 0 -85 -4 -85 -10z"/>
<path d="M5986 2851 c5 -5 18 -11 29 -13 19 -3 20 -12 23 -201 l2 -198 -32
-14 c-18 -8 -31 -15 -28 -16 16 -4 180 -3 180 1 0 3 -13 11 -30 17 l-30 11 0
185 c0 102 3 192 6 201 3 9 17 16 30 16 13 0 24 5 24 10 0 6 -37 10 -92 10
-55 0 -88 -4 -82 -9z"/>
<path d="M6885 2850 c3 -5 14 -10 24 -10 37 0 41 -18 41 -212 l0 -189 -32 -14
c-18 -8 -31 -15 -28 -15 29 -5 160 -6 160 -1 0 4 -13 12 -29 18 -26 9 -30 17
-36 64 -3 30 -5 105 -3 168 l3 114 164 -187 c90 -102 168 -186 173 -186 6 0 9
61 7 163 -4 264 -4 263 31 276 17 5 30 12 30 15 0 4 -36 6 -80 6 -47 0 -80 -4
-80 -10 0 -5 11 -10 24 -10 13 0 27 -8 31 -17 12 -29 19 -303 8 -303 -12 0
-214 224 -264 293 -34 46 -35 46 -92 47 -36 0 -56 -4 -52 -10z"/>
<path d="M7685 2676 c-91 -40 -155 -189 -109 -254 21 -30 78 -30 124 2 72 48
122 188 84 233 -25 29 -62 36 -99 19z m65 -51 c0 -36 -38 -135 -66 -172 -29
-39 -69 -45 -77 -12 -13 49 55 203 96 218 27 11 47 -4 47 -34z"/>
<path d="M4196 2190 c-13 -39 -25 -94 -21 -98 2 -3 16 10 30 27 25 29 31 31
91 31 l64 0 0 -193 c0 -204 -3 -217 -47 -217 -13 0 -23 -4 -23 -10 0 -6 38
-10 95 -10 52 0 95 4 95 9 0 5 -12 11 -27 13 l-28 3 -3 203 -2 202 62 0 c73 0
83 -5 98 -44 13 -36 16 -33 23 32 5 46 4 53 -9 48 -8 -3 -97 -6 -196 -7 -137
0 -183 3 -189 13 -6 10 -9 9 -13 -2z"/>
<path d="M4879 2183 c-15 -2 -51 -18 -80 -36 -133 -80 -149 -277 -30 -378 147
-127 378 -38 398 153 14 140 -74 249 -212 261 -27 3 -62 3 -76 0z m132 -46
c55 -36 84 -106 84 -202 0 -105 -22 -150 -88 -184 -64 -32 -123 -23 -177 25
-100 90 -94 310 10 365 49 27 128 25 171 -4z"/>
<path d="M5854 2179 c-41 -12 -80 -52 -88 -90 -9 -47 16 -93 74 -136 95 -70
120 -98 120 -135 0 -45 -23 -76 -64 -83 -48 -9 -97 15 -121 58 -26 49 -39 47
-31 -5 8 -51 24 -65 82 -74 61 -9 110 3 146 35 24 22 31 37 35 77 6 66 -18
101 -106 160 -72 47 -98 85 -86 123 11 36 34 51 80 51 38 0 47 -5 74 -37 l31
-38 0 36 c0 20 -6 41 -12 47 -19 15 -99 22 -134 11z"/>
<path d="M2285 2170 l-30 -7 26 -11 c15 -6 29 -18 33 -27 10 -27 7 -331 -4
-359 -6 -16 -17 -26 -30 -26 -11 0 -20 -4 -20 -10 0 -6 35 -10 85 -10 50 0 85
4 85 10 0 6 -9 10 -20 10 -29 0 -40 30 -40 110 0 55 3 72 16 77 29 11 64 -16
108 -85 24 -37 57 -80 74 -94 35 -29 99 -45 115 -29 8 8 6 11 -5 11 -21 0 -83
65 -134 142 l-43 63 40 35 c34 29 42 43 46 80 10 88 -59 131 -204 129 -37 -1
-81 -5 -98 -9z m197 -31 c28 -15 51 -75 43 -115 -8 -47 -47 -74 -106 -74 l-49
0 0 99 c0 70 4 101 13 104 18 6 76 -2 99 -14z"/>
<path d="M2810 2172 c0 -5 11 -14 25 -20 l25 -12 -2 -197 -3 -198 -27 -3 c-16
-2 -28 -8 -28 -13 0 -6 67 -8 172 -7 l172 3 13 44 c14 48 8 68 -11 37 -35 -58
-41 -61 -119 -61 -101 0 -107 6 -107 110 l0 83 29 5 c52 11 101 -3 107 -29 12
-47 24 -23 24 46 0 40 -4 70 -10 70 -5 0 -10 -8 -10 -18 0 -31 -22 -42 -82
-42 l-58 0 0 90 0 90 73 0 c77 0 92 -7 113 -55 7 -17 9 -13 12 19 2 21 1 43
-1 50 -6 14 -307 22 -307 8z"/>
<path d="M3478 2166 c-10 -7 -18 -18 -18 -24 0 -18 -138 -373 -151 -388 -6 -8
-20 -14 -30 -14 -11 0 -19 -4 -19 -10 0 -6 30 -10 70 -10 40 0 70 4 70 10 0 6
-9 10 -20 10 -26 0 -26 20 1 98 l21 63 72 -3 71 -3 22 -60 c28 -76 28 -95 4
-95 -11 0 -23 -4 -26 -10 -4 -6 25 -10 79 -10 51 0 86 4 86 10 0 6 -8 10 -19
10 -10 0 -23 6 -29 13 -9 10 -152 411 -152 424 0 7 -16 1 -32 -11z m27 -146
c14 -40 25 -77 25 -82 0 -4 -26 -8 -58 -8 l-59 0 30 85 c16 47 31 84 33 82 2
-2 15 -37 29 -77z"/>
<path d="M3810 2168 c0 -4 8 -8 19 -8 38 0 42 -20 39 -221 l-3 -194 -27 -3
c-16 -2 -28 -8 -28 -13 0 -5 69 -9 164 -9 l164 0 12 35 c6 19 10 43 8 52 -2
14 -9 9 -26 -19 -26 -42 -64 -54 -133 -45 -69 9 -69 8 -69 211 0 188 4 206 42
206 10 0 18 4 18 9 0 5 -40 8 -90 8 -49 0 -90 -4 -90 -9z"/>
<path d="M5293 2174 c-13 -3 -23 -9 -23 -14 0 -5 10 -10 23 -12 22 -3 22 -5
25 -183 3 -210 1 -225 -33 -225 -14 0 -25 -4 -25 -10 0 -6 37 -10 92 -10 91 0
98 3 56 24 -21 10 -23 20 -26 90 -2 44 1 83 7 89 23 23 58 -4 114 -87 62 -91
85 -111 140 -121 49 -9 68 4 29 21 -32 13 -95 87 -139 162 -22 37 -24 47 -13
50 8 3 27 18 42 33 23 22 28 37 28 74 0 91 -38 117 -180 121 -52 1 -105 0
-117 -2z m210 -55 c21 -23 27 -39 27 -75 0 -64 -31 -94 -100 -94 l-50 0 0 99
c0 70 4 101 13 105 27 12 83 -6 110 -35z"/>
<path d="M6111 2154 c-79 -66 0 -189 97 -149 36 16 52 42 52 87 -1 79 -87 115
-149 62z m122 -26 c23 -30 18 -67 -13 -98 -27 -27 -63 -25 -96 3 -32 28 -36
78 -8 108 27 30 91 22 117 -13z"/>
<path d="M6130 2091 c0 -39 4 -51 15 -51 8 0 15 7 15 15 0 8 5 15 10 15 6 0
13 -7 16 -15 12 -31 23 -13 21 33 -2 47 -2 47 -39 50 l-38 3 0 -50z m52 14 c0
-5 -5 -11 -11 -13 -6 -2 -11 4 -11 13 0 9 5 15 11 13 6 -2 11 -8 11 -13z"/>
<path d="M1805 1649 c-4 -6 -5 -12 -2 -15 2 -3 7 2 10 11 7 17 1 20 -8 4z"/>
<path d="M1323 1599 c-51 -15 -83 -61 -83 -121 0 -44 4 -54 34 -84 29 -29 41
-34 80 -34 53 0 90 20 112 61 51 99 -37 208 -143 178z m85 -29 c89 -55 54
-190 -49 -190 -84 0 -130 98 -78 164 38 48 77 56 127 26z"/>
<path d="M40 1480 c0 -73 4 -120 10 -120 6 0 10 43 10 110 l0 110 39 0 c45 0
71 -20 71 -55 0 -27 -35 -56 -56 -48 -21 8 -17 -3 18 -63 18 -30 39 -54 46
-54 12 0 12 4 0 23 -45 68 -44 64 -15 87 20 16 27 30 27 55 0 47 -37 75 -101
75 l-49 0 0 -120z"/>
<path d="M310 1480 l0 -120 65 0 c37 0 65 4 65 10 0 6 -25 10 -55 10 l-55 0 0
45 0 45 55 0 c30 0 55 5 55 10 0 6 -25 10 -55 10 l-55 0 0 45 0 45 55 0 c30 0
55 5 55 10 0 6 -28 10 -65 10 l-65 0 0 -120z"/>
<path d="M626 1591 c-9 -14 -86 -214 -86 -223 0 -22 19 -4 33 32 15 40 16 40
70 40 l54 0 13 -40 c7 -22 17 -40 22 -40 13 0 11 8 -33 128 -38 102 -57 129
-73 103z m37 -68 c23 -65 23 -67 -23 -68 -22 0 -40 4 -40 9 0 15 35 106 40
106 3 0 14 -21 23 -47z"/>
<path d="M850 1480 l0 -120 55 0 c30 0 55 5 55 10 0 6 -20 10 -45 10 l-45 0 0
110 c0 67 -4 110 -10 110 -6 0 -10 -47 -10 -120z"/>
<path d="M1040 1590 c0 -5 9 -10 20 -10 19 0 20 -7 20 -110 0 -143 18 -145 22
-2 3 102 4 107 26 110 44 7 21 22 -33 22 -30 0 -55 -4 -55 -10z"/>
<path d="M1590 1486 c0 -66 4 -117 10 -121 6 -3 10 2 11 12 0 10 1 59 2 108
l2 90 38 3 c46 4 67 -11 67 -48 0 -31 -18 -50 -49 -53 l-20 -1 20 -36 c30 -53
57 -86 64 -78 4 3 -5 24 -19 45 -31 45 -32 49 -6 56 42 11 46 94 7 122 -12 9
-44 15 -74 15 l-53 0 0 -114z"/>
</g>
</svg>
