<?xml version="1.0" standalone="no"?>
<!DOCTYPE svg PUBLIC "-//W3C//DTD SVG 20010904//EN"
 "http://www.w3.org/TR/2001/REC-SVG-20010904/DTD/svg10.dtd">
<svg version="1.0" xmlns="http://www.w3.org/2000/svg"
 width="750.000000pt" height="480.000000pt" viewBox="0 0 750.000000 480.000000"
 preserveAspectRatio="xMidYMid meet">

<g transform="translate(0.000000,480.000000) scale(0.100000,-0.100000)"
fill="#000000" stroke="none">
<path d="M1178 4628 c-36 -88 -141 -288 -202 -386 -187 -302 -447 -570 -649
-670 -60 -30 -60 -30 -36 -45 13 -8 68 -37 121 -63 l96 -48 54 28 c239 124
485 394 649 713 28 54 53 100 56 103 3 3 2 -26 -1 -65 -12 -120 26 -563 54
-631 10 -24 185 -124 217 -124 16 0 22 11 33 58 17 79 97 232 121 232 5 0 9
-18 9 -40 0 -21 7 -90 15 -152 66 -478 254 -942 516 -1271 62 -77 214 -233
282 -289 41 -32 35 -25 -25 36 -325 323 -503 677 -591 1171 -19 104 -21 158
-21 415 -1 264 2 308 22 418 13 68 20 132 17 142 -7 23 -283 176 -295 164 -5
-5 -18 -56 -30 -114 -20 -100 -26 -118 -33 -109 -2 2 -18 94 -36 203 -18 110
-38 211 -46 226 -10 20 -48 44 -139 89 -68 33 -127 61 -130 61 -3 0 -15 -24
-28 -52z"/>
<path d="M1504 4535 c3 -9 17 -82 31 -162 14 -81 27 -148 28 -150 2 -1 9 20
16 49 13 59 26 78 52 78 20 0 260 -130 292 -158 22 -19 21 -37 -5 -207 -38
-251 -27 -681 23 -882 l11 -42 47 31 c161 110 288 291 331 471 105 438 -221
862 -748 972 -89 18 -85 18 -78 0z"/>
<path d="M1022 4514 c-132 -35 -295 -121 -401 -212 -175 -150 -281 -370 -281
-584 0 -105 7 -110 74 -64 190 131 403 369 550 616 55 93 136 242 136 253 0
10 -16 8 -78 -9z"/>
<path d="M2675 4308 c-2 -13 -16 -79 -29 -148 -14 -69 -68 -344 -120 -611 -53
-267 -96 -491 -96 -497 0 -9 30 -12 103 -12 l102 0 29 153 c60 321 104 538
108 543 6 5 26 -39 193 -433 l129 -303 36 0 c34 0 37 2 62 63 36 83 97 229
199 474 46 111 87 203 90 203 5 0 18 -66 101 -527 l32 -173 108 0 c59 0 108 3
108 8 0 4 -9 52 -20 107 -33 166 -94 481 -161 837 l-64 338 -37 0 c-36 0 -37
-1 -66 -72 -17 -40 -91 -215 -165 -388 -73 -173 -144 -341 -157 -373 -13 -31
-27 -54 -31 -50 -7 7 -173 393 -230 533 -10 25 -47 113 -82 195 l-64 150 -36
3 c-31 3 -37 0 -42 -20z"/>
<path d="M3880 3685 l0 -645 110 0 110 0 0 645 0 645 -110 0 -110 0 0 -645z"/>
<path d="M4711 4288 c-18 -44 -339 -751 -482 -1066 -43 -95 -79 -175 -79 -178
0 -2 51 -4 113 -4 l113 0 70 163 c266 616 310 717 315 717 3 0 54 -111 113
-247 60 -137 147 -335 193 -440 l85 -193 114 0 114 0 -24 53 c-35 79 -309 688
-440 977 l-115 255 -35 3 c-34 3 -37 1 -55 -40z"/>
<path d="M5663 4217 c-73 -377 -224 -1145 -227 -1159 -4 -16 6 -18 100 -18 57
0 104 1 104 3 0 1 24 126 54 277 29 151 59 308 66 348 7 39 16 72 19 72 3 0
42 -84 86 -187 43 -104 114 -269 156 -368 l77 -180 38 0 39 0 145 345 c176
421 167 399 173 380 3 -8 23 -118 46 -245 23 -126 52 -278 63 -337 l21 -108
107 0 c98 0 108 2 104 18 -2 9 -56 289 -119 622 -63 333 -117 615 -120 628 -5
20 -11 23 -42 20 l-36 -3 -74 -175 c-41 -96 -124 -292 -185 -435 -61 -143
-113 -263 -117 -267 -4 -4 -19 20 -33 55 -61 142 -230 542 -288 680 l-62 147
-37 0 -36 0 -22 -113z"/>
<path d="M6890 3685 l0 -645 110 0 110 0 0 645 0 645 -110 0 -110 0 0 -645z"/>
<path d="M1177 4046 c-157 -274 -395 -519 -615 -630 l-52 -26 -50 25 c-27 14
-52 25 -56 25 -9 0 53 -107 89 -155 110 -144 271 -258 459 -324 269 -94 571
-87 840 17 l26 11 -24 78 c-51 162 -114 473 -114 561 0 17 -4 32 -9 32 -16 0
-71 -124 -78 -175 -4 -34 -12 -51 -30 -62 -23 -15 -29 -14 -138 41 -63 31
-119 64 -124 74 -20 37 -56 350 -64 553 l-2 56 -58 -101z"/>
<path d="M4682 3513 c-68 -33 -104 -113 -83 -183 48 -162 257 -171 317 -13 20
51 14 92 -20 144 -43 65 -141 88 -214 52z"/>
<path d="M4870 2907 c-19 -9 -26 -22 -28 -50 -3 -29 -7 -37 -23 -37 -10 0 -19
-7 -19 -15 0 -8 9 -15 20 -15 19 0 20 -7 20 -120 0 -113 1 -120 20 -120 19 0
20 7 20 120 l0 120 25 0 c16 0 25 6 25 15 0 9 -10 15 -26 15 -22 0 -25 4 -22
28 2 19 9 28 26 30 15 2 22 9 20 20 -4 22 -27 25 -58 9z"/>
<path d="M6321 2908 c-48 -25 -66 -73 -65 -178 0 -131 25 -177 101 -186 48 -6
81 12 107 56 17 29 21 52 20 130 0 96 -12 140 -48 169 -22 19 -87 24 -115 9z
m86 -36 c22 -14 33 -62 33 -141 0 -96 -14 -139 -46 -147 -69 -18 -94 21 -94
147 0 113 17 149 70 149 14 0 30 -4 37 -8z"/>
<path d="M6850 2908 c-53 -28 -67 -112 -26 -153 13 -13 42 -29 65 -36 53 -16
81 -43 81 -79 0 -38 -24 -60 -65 -60 -40 0 -65 22 -65 56 0 17 -5 24 -20 24
-15 0 -20 -7 -20 -25 0 -44 21 -75 61 -86 79 -24 146 14 156 90 5 35 2 44 -24
70 -16 16 -47 34 -67 40 -52 14 -76 38 -76 76 0 39 16 55 55 55 35 0 55 -15
55 -42 0 -13 8 -18 26 -18 24 0 25 3 19 28 -3 15 -14 35 -25 46 -23 23 -97 31
-130 14z"/>
<path d="M2385 2898 c-11 -29 -95 -330 -95 -339 0 -5 9 -9 19 -9 15 0 23 12
33 48 l14 47 59 0 59 0 14 -47 c10 -36 18 -48 33 -48 10 0 19 3 19 8 0 4 -20
83 -45 175 -25 93 -45 171 -45 173 0 10 -61 2 -65 -8z m59 -134 c22 -85 22
-84 -29 -84 -49 0 -52 5 -35 56 5 16 14 49 20 74 14 52 20 45 44 -46z"/>
<path d="M3440 2890 c0 -13 7 -20 20 -20 13 0 20 7 20 20 0 13 -7 20 -20 20
-13 0 -20 -7 -20 -20z"/>
<path d="M3910 2890 c0 -13 7 -20 20 -20 13 0 20 7 20 20 0 13 -7 20 -20 20
-13 0 -20 -7 -20 -20z"/>
<path d="M5080 2730 l0 -180 25 0 c25 0 25 1 25 80 l0 80 43 0 c51 0 67 -13
67 -55 0 -16 3 -47 6 -67 5 -30 11 -38 28 -38 21 0 22 4 18 63 -2 40 -10 72
-23 90 -20 27 -20 28 0 54 30 37 28 97 -4 128 -22 22 -32 25 -105 25 l-80 0 0
-180z m146 124 c20 -19 24 -31 19 -52 -10 -42 -24 -52 -71 -52 l-44 0 0 65 0
65 35 0 c25 0 44 -8 61 -26z"/>
<path d="M5350 2730 l0 -180 96 0 c86 0 95 2 92 18 -3 14 -16 18 -76 20 l-72
3 0 64 0 65 71 0 c62 0 70 2 67 18 -3 14 -16 18 -71 20 l-68 3 3 57 3 57 73 3
c55 2 72 6 72 17 0 12 -18 15 -95 15 l-95 0 0 -180z"/>
<path d="M5617 2777 c-20 -72 -44 -153 -52 -179 -14 -48 -14 -48 9 -48 18 0
25 9 37 48 l15 47 59 0 59 0 11 -45 c8 -35 16 -46 33 -48 26 -4 26 -5 2 83
-11 39 -32 116 -47 173 -27 101 -27 102 -57 102 l-31 0 -38 -133z m93 -3 c27
-94 27 -94 -25 -94 -35 0 -45 4 -45 16 0 22 41 156 46 151 3 -2 13 -35 24 -73z"/>
<path d="M5840 2730 l0 -180 96 0 c86 0 95 2 92 18 -3 14 -16 18 -76 20 l-72
3 0 159 c0 153 -1 160 -20 160 -19 0 -20 -7 -20 -180z"/>
<path d="M6000 2896 c0 -10 14 -16 43 -18 l42 -3 3 -162 c2 -154 4 -163 22
-163 18 0 20 9 22 163 l3 162 43 3 c28 2 42 8 42 18 0 11 -21 14 -110 14 -89
0 -110 -3 -110 -14z"/>
<path d="M6540 2730 l0 -180 25 0 c25 0 25 1 25 80 l0 80 44 0 c24 0 48 -6 54
-12 5 -7 13 -43 17 -80 7 -62 9 -68 30 -68 21 0 22 4 18 53 -6 74 -11 93 -29
111 -14 14 -13 18 5 38 31 32 29 101 -4 133 -22 22 -32 25 -105 25 l-80 0 0
-180z m150 130 c24 -24 26 -57 4 -88 -12 -17 -25 -22 -60 -22 l-44 0 0 65 0
65 40 0 c27 0 47 -7 60 -20z"/>
<path d="M3790 2864 c0 -27 -5 -37 -20 -41 -26 -7 -26 -29 0 -36 18 -4 20 -15
22 -118 l3 -114 38 -3 c27 -2 37 1 37 11 0 8 -9 17 -20 20 -18 5 -20 14 -20
106 0 94 1 101 20 101 11 0 20 7 20 15 0 8 -9 15 -20 15 -17 0 -20 7 -20 40 0
33 -3 40 -20 40 -16 0 -20 -7 -20 -36z"/>
<path d="M7076 2883 c-6 -14 -5 -15 5 -6 7 7 10 15 7 18 -3 3 -9 -2 -12 -12z"/>
<path d="M2599 2815 c-32 -17 -44 -58 -29 -96 9 -21 25 -32 61 -44 69 -23 88
-62 44 -91 -31 -20 -63 -10 -71 22 -7 28 -44 34 -44 6 0 -82 144 -96 170 -16
16 49 -3 84 -58 104 -55 20 -76 42 -68 68 14 42 72 38 82 -4 4 -15 13 -24 25
-24 27 0 24 36 -6 65 -27 28 -66 32 -106 10z"/>
<path d="M2810 2817 c-32 -16 -47 -58 -34 -94 7 -20 23 -32 64 -48 49 -19 55
-24 58 -52 2 -24 -2 -34 -19 -43 -29 -16 -69 2 -69 30 0 13 -7 20 -20 20 -26
0 -27 -40 -2 -63 43 -39 134 -28 148 17 10 31 7 75 -6 91 -6 8 -33 21 -60 30
-50 16 -65 35 -55 65 13 40 71 35 81 -6 4 -15 13 -24 25 -24 27 0 24 36 -6 65
-27 28 -66 32 -105 12z"/>
<path d="M3030 2817 c-13 -7 -30 -24 -37 -37 -16 -32 -16 -158 0 -190 33 -65
127 -65 159 0 22 44 24 140 3 185 -24 50 -75 67 -125 42z m76 -38 c29 -32 27
-160 -2 -190 -27 -26 -61 -18 -75 18 -13 34 -11 130 2 156 23 42 47 47 75 16z"/>
<path d="M3257 2819 c-45 -26 -67 -157 -38 -228 32 -76 147 -61 167 22 5 22 3
27 -14 27 -13 0 -22 -9 -26 -25 -8 -32 -39 -49 -66 -35 -26 14 -33 46 -28 126
3 50 9 70 23 80 28 21 44 17 63 -16 21 -36 57 -42 47 -7 -15 52 -83 82 -128
56z"/>
<path d="M3577 2823 c-17 -4 -47 -51 -47 -73 0 -21 41 -10 50 14 17 45 75 45
86 0 8 -31 -9 -50 -50 -58 -56 -11 -86 -41 -86 -87 0 -68 48 -96 110 -64 18 9
31 11 35 5 8 -13 55 -13 55 -1 0 6 -4 13 -10 16 -6 3 -10 50 -10 106 0 93 -2
102 -25 124 -23 24 -61 30 -108 18z m93 -168 c0 -37 -35 -85 -63 -85 -35 0
-52 65 -23 89 13 11 57 28 79 30 4 1 7 -15 7 -34z"/>
<path d="M4053 2820 c-35 -14 -53 -61 -53 -137 0 -110 40 -156 117 -138 49 13
73 57 73 138 0 116 -54 170 -137 137z m73 -41 c29 -32 27 -160 -2 -190 -27
-26 -61 -18 -75 18 -13 34 -11 130 2 156 23 42 47 47 75 16z"/>
<path d="M4302 2814 c-12 -8 -22 -10 -22 -5 0 6 -9 11 -20 11 -19 0 -20 -7
-20 -135 0 -128 1 -135 20 -135 19 0 20 7 20 109 0 120 7 135 57 129 l28 -3 3
-117 c2 -110 4 -118 22 -118 19 0 20 7 20 124 0 118 -1 126 -22 140 -12 9 -32
16 -43 16 -11 0 -31 -7 -43 -16z"/>
<path d="M4620 2802 c-73 -74 -34 -262 55 -262 72 0 100 42 100 152 0 77 -1
81 -33 109 -43 38 -84 39 -122 1z m91 -21 c21 -17 24 -27 24 -94 0 -60 -4 -79
-19 -96 -24 -27 -40 -27 -67 0 -19 19 -21 30 -17 101 3 65 7 82 23 94 24 18
28 18 56 -5z"/>
<path d="M3440 2685 c0 -128 1 -135 20 -135 19 0 20 7 20 135 0 128 -1 135
-20 135 -19 0 -20 -7 -20 -135z"/>
<path d="M3910 2685 c0 -128 1 -135 20 -135 19 0 20 7 20 135 0 128 -1 135
-20 135 -19 0 -20 -7 -20 -135z"/>
</g>
</svg>
